<svg width="8" height="15" viewBox="0 0 8 15" fill="none" xmlns="http://www.w3.org/2000/svg">
<path d="M6.83 15C6.6806 15.0005 6.53299 14.9675 6.39801 14.9035C6.26303 14.8395 6.14411 14.746 6.05 14.63L1.22 8.63C1.07291 8.45107 0.992508 8.22663 0.992508 7.995C0.992508 7.76338 1.07291 7.53893 1.22 7.36L6.22 1.36C6.38973 1.15578 6.63365 1.02736 6.89807 1.00298C7.1625 0.978601 7.42578 1.06026 7.63 1.23C7.83421 1.39974 7.96264 1.64365 7.98702 1.90808C8.0114 2.1725 7.92973 2.43578 7.76 2.64L3.29 8L7.61 13.36C7.73228 13.5068 7.80996 13.6855 7.83384 13.8751C7.85771 14.0646 7.8268 14.257 7.74474 14.4296C7.66269 14.6021 7.53293 14.7475 7.37082 14.8486C7.20871 14.9497 7.02103 15.0022 6.83 15Z" fill="#FEFEFE"/>
</svg>
