<svg width="30" height="18" viewBox="0 0 30 18" fill="none" xmlns="http://www.w3.org/2000/svg">
<path d="M8 0C4.7 0 2 2.7 2 6C2 7.984 2.977 9.75 4.469 10.844C1.832 12.152 0 14.864 0 18H2C2 14.676 4.676 12 8 12C11.324 12 14 14.676 14 18H16C16 14.676 18.676 12 22 12C25.324 12 28 14.676 28 18H30C30 14.863 28.168 12.152 25.531 10.844C26.2945 10.2877 26.916 9.55905 27.345 8.71738C27.774 7.8757 27.9984 6.9447 28 6C28 2.7 25.3 0 22 0C18.7 0 16 2.7 16 6C16 7.984 16.977 9.75 18.469 10.844C17.0079 11.5623 15.7986 12.7062 15 14.125C14.2014 12.7062 12.9921 11.5623 11.531 10.844C12.2945 10.2877 12.916 9.55905 13.345 8.71738C13.774 7.8757 13.9984 6.9447 14 6C14 2.7 11.3 0 8 0ZM8 2C10.223 2 12 3.777 12 6C12 8.223 10.223 10 8 10C5.777 10 4 8.223 4 6C4 3.777 5.777 2 8 2ZM22 2C24.223 2 26 3.777 26 6C26 8.223 24.223 10 22 10C19.777 10 18 8.223 18 6C18 3.777 19.777 2 22 2Z" fill="#FF6915"/>
</svg>
